<?xml version="1.0" standalone="no"?>
<!DOCTYPE svg PUBLIC "-//W3C//DTD SVG 20010904//EN"
 "http://www.w3.org/TR/2001/REC-SVG-20010904/DTD/svg10.dtd">
<svg version="1.0" xmlns="http://www.w3.org/2000/svg"
 width="500.000000pt" height="500.000000pt" viewBox="0 0 500.000000 500.000000"
 preserveAspectRatio="xMidYMid meet">
<metadata>
Created by potrace 1.14, written by Peter Selinger 2001-2017
</metadata>
<g transform="translate(0.000000,500.000000) scale(0.100000,-0.100000)"
fill="#000000" stroke="none">
<path d="M2250 4253 c-312 -49 -541 -148 -707 -307 -112 -107 -150 -157 -208
-276 -83 -168 -88 -198 -93 -580 l-4 -334 -51 -56 c-122 -132 -144 -282 -65
-438 52 -104 145 -172 267 -195 47 -9 62 -16 71 -35 5 -13 24 -41 41 -62 l32
-39 -31 -35 c-65 -74 -87 -195 -58 -315 29 -117 30 -108 -10 -114 -96 -16
-215 -112 -265 -214 -21 -42 -24 -62 -24 -168 0 -114 1 -122 29 -169 42 -71
97 -128 158 -162 l53 -29 1100 0 1100 0 48 24 c60 31 146 121 178 186 21 43
24 64 24 155 0 95 -3 110 -28 160 -56 109 -165 196 -270 215 -28 6 -36 11 -33
24 55 194 42 324 -42 414 l-26 27 26 28 c13 15 35 43 47 63 18 32 28 38 69 43
101 14 229 101 271 185 83 162 57 335 -67 456 l-52 49 0 305 c0 249 -3 317
-16 370 -37 148 -126 282 -234 352 -28 18 -50 35 -50 38 0 3 9 35 20 70 27 85
37 201 20 240 -25 63 -109 82 -155 37 -26 -26 -28 -32 -44 -148 -13 -94 -42
-155 -89 -190 -21 -15 -71 -54 -114 -87 -141 -111 -393 -222 -623 -276 -309
-72 -701 -70 -942 6 l-32 10 15 42 c42 120 125 234 235 322 82 65 153 102 275
143 150 50 227 63 409 69 147 4 184 2 272 -16 109 -23 194 -55 283 -108 70
-42 129 -45 165 -8 95 94 -114 247 -425 311 -94 20 -143 24 -270 23 -85 -1
-166 -4 -180 -6z m1130 -638 c38 -19 90 -85 131 -165 34 -65 34 -66 31 -185
-2 -66 -7 -124 -11 -128 -5 -5 -35 21 -67 56 -68 75 -136 203 -154 292 -7 33
-17 68 -22 78 -7 13 -5 25 7 43 18 28 44 30 85 9z m-209 -413 c39 -99 70 -155
130 -235 l59 -78 0 -349 c0 -380 -3 -402 -59 -483 l-26 -38 -783 0 -784 -1
-23 22 c-13 12 -34 45 -47 73 -23 52 -23 53 -26 546 l-3 493 33 -6 c420 -77
1038 29 1389 239 l74 44 21 -85 c12 -46 32 -110 45 -142z m-1771 -772 c0 -183
-4 -189 -70 -122 -50 50 -68 107 -51 164 14 46 78 118 105 118 14 0 16 -19 16
-160z m2220 145 c16 -8 41 -36 56 -61 22 -37 26 -53 22 -95 -6 -62 -49 -127
-95 -146 l-33 -13 0 165 c0 109 4 165 10 165 6 0 24 -7 40 -15z m-343 -784
c48 -22 63 -45 63 -96 0 -21 -25 -153 -56 -294 -31 -141 -60 -284 -65 -319
-13 -87 -32 -127 -71 -149 -31 -17 -76 -18 -641 -21 -410 -2 -620 1 -647 8
-52 14 -76 41 -89 99 -26 113 -125 581 -134 632 -14 75 1 111 56 138 41 21 55
21 792 21 714 0 752 -1 792 -19z m-1748 -578 c7 -32 21 -105 32 -163 10 -58
22 -113 25 -122 5 -16 -2 -18 -58 -18 -115 1 -179 49 -194 148 -7 49 9 110 39
148 24 31 84 63 117 64 23 0 27 -6 39 -57z m2037 22 c55 -42 74 -81 74 -150 0
-111 -59 -165 -189 -173 -66 -4 -74 -3 -68 12 4 9 21 91 39 182 l33 166 38 -5
c21 -3 54 -17 73 -32z"/>
<path d="M1947 2779 c-49 -40 -67 -77 -67 -136 0 -56 23 -99 73 -137 68 -52
181 -29 227 46 33 54 36 110 9 165 -33 66 -77 93 -148 93 -48 0 -62 -4 -94
-31z"/>
<path d="M2848 2794 c-41 -22 -80 -95 -80 -149 0 -57 40 -128 84 -151 47 -24
121 -21 163 7 50 34 90 116 80 166 -9 51 -41 101 -79 124 -38 23 -129 25 -168
3z"/>
<path d="M2270 2367 c-14 -7 -31 -25 -38 -41 -31 -63 12 -132 118 -191 49 -27
64 -30 135 -29 67 0 89 5 133 27 29 15 71 46 92 67 35 35 40 46 40 84 0 37 -5
48 -31 70 -45 38 -81 34 -131 -14 -69 -66 -133 -66 -205 1 -45 41 -71 47 -113
26z"/>
<path d="M2440 1581 c-88 -18 -147 -69 -176 -148 -64 -180 104 -353 291 -299
103 31 165 114 165 223 -1 124 -78 210 -205 226 -22 3 -56 2 -75 -2z m79 -176
c35 -18 45 -52 26 -82 -22 -33 -61 -40 -93 -16 -36 27 -39 57 -8 88 29 29 37
30 75 10z"/>
<path d="M1749 3621 c-21 -22 -29 -39 -29 -66 0 -27 8 -44 29 -66 26 -25 37
-29 86 -29 91 0 135 35 135 106 0 15 -12 38 -29 55 -27 26 -36 29 -96 29 -60
0 -69 -3 -96 -29z"/>
</g>
</svg>
