<?xml version="1.0" standalone="no"?>
<!DOCTYPE svg PUBLIC "-//W3C//DTD SVG 20010904//EN"
 "http://www.w3.org/TR/2001/REC-SVG-20010904/DTD/svg10.dtd">
<svg version="1.0" xmlns="http://www.w3.org/2000/svg"
 width="500.000000pt" height="500.000000pt" viewBox="0 0 500.000000 500.000000"
 preserveAspectRatio="xMidYMid meet">
<metadata>
Created by potrace 1.14, written by Peter Selinger 2001-2017
</metadata>
<g transform="translate(0.000000,500.000000) scale(0.100000,-0.100000)"
fill="#000000" stroke="none">
<path d="M2250 4253 c-154 -19 -395 -96 -505 -159 -27 -16 -63 -36 -80 -44
-16 -8 -82 -67 -146 -130 -109 -108 -119 -122 -173 -230 -94 -191 -99 -219
-104 -608 l-4 -333 -43 -40 c-23 -21 -57 -67 -76 -101 -33 -60 -34 -68 -34
-168 0 -101 2 -109 34 -173 19 -37 52 -84 74 -103 49 -45 148 -92 209 -100 34
-5 49 -12 53 -25 4 -10 22 -37 41 -60 19 -22 34 -44 34 -48 0 -4 -11 -18 -24
-30 -34 -32 -67 -115 -73 -180 -3 -37 3 -89 16 -150 12 -51 20 -95 19 -96 -2
-1 -25 -7 -51 -14 -94 -23 -202 -113 -248 -208 -21 -42 -24 -62 -24 -163 0
-107 2 -119 28 -169 37 -69 114 -146 175 -174 l47 -22 1095 0 1095 0 53 30
c64 35 137 112 172 181 22 43 25 62 25 149 0 88 -3 107 -27 158 -52 110 -164
202 -270 221 -21 4 -38 9 -38 12 0 2 9 46 21 97 33 147 15 251 -59 329 l-25
27 30 34 c16 18 35 47 42 64 11 27 19 31 64 37 106 14 233 99 276 185 82 160
59 326 -64 451 l-54 55 -3 330 c-4 360 -3 348 -72 495 -32 69 -111 159 -177
201 -40 27 -49 37 -44 54 28 97 36 140 42 206 6 74 5 76 -27 112 -40 46 -92
51 -133 13 -29 -27 -33 -41 -42 -136 -7 -72 -56 -194 -98 -242 -14 -15 -22
-28 -19 -28 3 0 0 -6 -7 -12 -10 -11 -14 -9 -22 5 -6 9 -15 15 -20 12 -5 -4
-6 -11 -3 -17 5 -8 1 -9 -10 -5 -10 4 -15 3 -11 -4 4 -5 15 -7 26 -4 10 4 19
3 19 -2 -1 -10 -80 -90 -80 -80 0 4 -12 -3 -26 -16 -49 -43 -200 -123 -314
-166 -58 -22 -63 -21 -65 9 -1 16 3 19 24 15 14 -3 20 -2 14 1 -7 3 -13 10
-13 15 0 6 9 5 21 -1 11 -7 23 -9 27 -6 3 3 -1 6 -9 6 -8 1 -2 8 14 16 15 8
27 17 27 20 0 2 -10 -1 -22 -7 -13 -7 -35 -14 -51 -15 -27 -4 -70 -34 -48 -34
21 0 11 -19 -11 -23 l-23 -4 23 -2 c12 0 22 -5 22 -9 0 -9 -222 -67 -340 -88
-104 -19 -460 -32 -460 -17 0 6 -17 9 -38 7 -54 -3 -179 12 -267 33 l-75 18 6
45 c14 95 82 225 168 318 168 183 471 292 808 292 216 0 374 -38 519 -126 71
-43 128 -46 164 -9 26 25 32 63 15 96 -21 39 -142 118 -233 153 -165 64 -241
78 -442 81 -99 2 -196 1 -215 -2z m1130 -638 c38 -20 100 -98 137 -172 27 -57
28 -61 23 -193 -2 -74 -4 -156 -5 -182 0 -27 -3 -48 -7 -48 -14 0 -67 74 -107
151 -50 94 -73 156 -111 304 -26 99 -27 112 -14 133 17 26 43 28 84 7z m-260
-242 c14 -68 51 -172 91 -260 31 -67 124 -203 140 -203 5 0 9 -147 9 -358 0
-394 -3 -422 -60 -500 l-30 -42 -784 0 -784 0 -35 53 c-19 28 -40 70 -46 92
-7 27 -11 199 -11 519 l0 479 38 -6 c193 -31 431 -31 642 -1 259 37 564 136
730 237 41 25 78 46 82 46 4 1 12 -25 18 -56z m-1720 -948 l0 -166 -29 16
c-45 23 -90 83 -97 131 -8 58 10 106 57 148 67 62 69 58 69 -129z m2238 140
c63 -53 80 -147 39 -220 -20 -36 -77 -85 -98 -85 -5 0 -9 74 -9 165 0 156 1
165 19 165 11 0 33 -11 49 -25z m-362 -771 c46 -22 64 -50 64 -101 0 -23 -24
-153 -54 -290 -30 -136 -59 -281 -65 -321 -13 -86 -31 -125 -68 -149 -25 -17
-75 -18 -655 -21 -608 -2 -629 -2 -666 17 -46 24 -55 43 -81 176 -11 55 -41
195 -66 310 -26 116 -49 229 -52 252 -8 58 12 100 56 123 34 18 68 19 794 20
682 0 762 -2 793 -16z m-1738 -624 c12 -52 26 -124 32 -160 6 -36 13 -73 16
-82 5 -16 -2 -18 -54 -18 -102 0 -151 25 -183 95 -34 74 -15 169 44 223 26 25
108 54 118 43 4 -3 16 -49 27 -101z m2044 53 c37 -35 50 -58 59 -108 16 -83
-34 -171 -109 -193 -22 -7 -65 -12 -97 -12 -55 0 -57 1 -51 23 3 12 20 90 36
172 17 83 33 155 35 162 6 19 92 -10 127 -44z"/>
<path d="M1947 2779 c-49 -40 -67 -77 -67 -137 0 -168 230 -226 305 -77 40 80
17 175 -55 222 -24 17 -47 23 -89 23 -48 0 -62 -4 -94 -31z"/>
<path d="M2848 2794 c-74 -40 -101 -165 -52 -241 36 -55 70 -73 139 -73 54 0
60 2 100 43 86 86 79 189 -19 265 -34 26 -125 30 -168 6z"/>
<path d="M2273 2370 c-23 -10 -53 -58 -53 -86 0 -32 42 -90 89 -122 123 -84
255 -79 379 16 62 47 80 117 42 165 -38 48 -101 44 -142 -8 -46 -58 -138 -58
-197 -1 -39 38 -82 51 -118 36z"/>
<path d="M2384 1561 c-103 -47 -155 -163 -122 -272 13 -46 68 -113 108 -134
123 -64 265 -21 324 96 60 120 11 265 -106 314 -51 21 -153 19 -204 -4z m151
-166 c14 -13 25 -31 25 -40 0 -23 -46 -65 -71 -65 -30 0 -69 38 -69 66 0 26
43 64 72 64 10 0 30 -11 43 -25z"/>
<path d="M3056 3715 c-3 -8 -1 -17 5 -20 5 -4 6 -12 3 -18 -4 -7 -3 -9 1 -4
13 11 16 45 6 51 -5 3 -11 -1 -15 -9z"/>
<path d="M1740 3608 c-24 -39 -25 -59 -5 -97 18 -36 31 -41 116 -41 55 0 73 4
89 20 31 31 36 69 14 109 l-19 36 -87 3 -88 3 -20 -33z"/>
<path d="M2774 3528 c10 -6 22 -6 26 -2 5 5 -3 10 -18 11 -22 1 -24 0 -8 -9z"/>
<path d="M2583 3485 c0 -8 4 -12 9 -9 4 3 8 9 8 15 0 5 -4 9 -8 9 -5 0 -9 -7
-9 -15z"/>
<path d="M2476 3459 c3 -5 -7 -9 -23 -10 -27 -1 -26 -1 6 -9 19 -5 43 -5 53
-1 16 6 14 8 -12 18 -17 6 -28 7 -24 2z"/>
<path d="M2375 3440 c-16 -7 -17 -9 -3 -9 9 -1 20 4 23 9 7 11 7 11 -20 0z"/>
<path d="M2305 3420 c-13 -6 -15 -9 -5 -9 8 0 22 4 30 9 18 12 2 12 -25 0z"/>
<path d="M2438 3423 c7 -3 16 -2 19 1 4 3 -2 6 -13 5 -11 0 -14 -3 -6 -6z"/>
<path d="M1718 3413 c7 -3 16 -2 19 1 4 3 -2 6 -13 5 -11 0 -14 -3 -6 -6z"/>
<path d="M2075 3401 c19 -8 19 -9 -5 -13 -19 -4 -16 -6 12 -7 20 0 40 4 43 9
3 6 0 10 -7 10 -7 0 -24 3 -38 5 -21 5 -22 4 -5 -4z"/>
<path d="M2048 3363 c6 -2 18 -2 25 0 6 3 1 5 -13 5 -14 0 -19 -2 -12 -5z"/>
</g>
</svg>
